<svg viewBox="0 0 1024 1024" xmlns="http://www.w3.org/2000/svg">
  <defs>
    <clipPath id="squircle-clip">
      <path d="M 383.41 100.00 L 640.59 100.00 C 722.19 100.00 763.00 100.00 806.92 113.89 C 854.88 131.34 892.66 169.12 910.11 217.08 C 924.00 261.00 924.00 301.81 924.00 383.41 L 924.00 640.59 C 924.00 722.19 924.00 763.00 910.11 806.92 C 892.66 854.88 854.88 892.66 806.92 910.11 C 763.00 924.00 722.19 924.00 640.59 924.00 L 383.41 924.00 C 301.81 924.00 261.00 924.00 217.08 910.11 C 169.12 892.66 131.34 854.88 113.89 806.92 C 100.00 763.00 100.00 722.19 100.00 640.59 L 100.00 383.41 C 100.00 301.81 100.00 261.00 113.89 217.08 C 131.34 169.12 169.12 131.34 217.08 113.89 C 261.00 100.00 301.81 100.00 383.41 100.00 Z"/>
    </clipPath>
    <filter id="icon-shadow" x="-20%" y="-10%" width="140%" height="130%" color-interpolation-filters="sRGB">
      <feDropShadow dx="0" dy="12" stdDeviation="14" flood-color="#000" flood-opacity="0.5"/>
    </filter>

  </defs>

  <!-- Shadow layer: filter applied only to the shape, not the content -->
  <g filter="url(#icon-shadow)">
    <path d="M 383.41 100.00 L 640.59 100.00 C 722.19 100.00 763.00 100.00 806.92 113.89 C 854.88 131.34 892.66 169.12 910.11 217.08 C 924.00 261.00 924.00 301.81 924.00 383.41 L 924.00 640.59 C 924.00 722.19 924.00 763.00 910.11 806.92 C 892.66 854.88 854.88 892.66 806.92 910.11 C 763.00 924.00 722.19 924.00 640.59 924.00 L 383.41 924.00 C 301.81 924.00 261.00 924.00 217.08 910.11 C 169.12 892.66 131.34 854.88 113.89 806.92 C 100.00 763.00 100.00 722.19 100.00 640.59 L 100.00 383.41 C 100.00 301.81 100.00 261.00 113.89 217.08 C 131.34 169.12 169.12 131.34 217.08 113.89 C 261.00 100.00 301.81 100.00 383.41 100.00 Z" fill="#14120b"/>
  </g>

  <!-- Icon content: no filter wrapper, preserves exact colors -->
  <g clip-path="url(#squircle-clip)">
    <path d="M 383.41 100.00 L 640.59 100.00 C 722.19 100.00 763.00 100.00 806.92 113.89 C 854.88 131.34 892.66 169.12 910.11 217.08 C 924.00 261.00 924.00 301.81 924.00 383.41 L 924.00 640.59 C 924.00 722.19 924.00 763.00 910.11 806.92 C 892.66 854.88 854.88 892.66 806.92 910.11 C 763.00 924.00 722.19 924.00 640.59 924.00 L 383.41 924.00 C 301.81 924.00 261.00 924.00 217.08 910.11 C 169.12 892.66 131.34 854.88 113.89 806.92 C 100.00 763.00 100.00 722.19 100.00 640.59 L 100.00 383.41 C 100.00 301.81 100.00 261.00 113.89 217.08 C 131.34 169.12 169.12 131.34 217.08 113.89 C 261.00 100.00 301.81 100.00 383.41 100.00 Z" fill="#14120b"/>
    <svg x="0" y="0" width="1024" height="1024" viewBox="-23 -23 558 558">
      
<defs>
<!-- Background Gradient -->
<radialGradient id="bgGlow" cx="50%" cy="30%" r="100%">
<stop offset="0%" stop-color="#15120b" />
<stop offset="100%" stop-color="#15120b" />
</radialGradient>

<linearGradient id="macOsBevel" x1="0%" y1="0%" x2="0%" y2="100%">
  <stop offset="0%" stop-color="#FFFFFF" stop-opacity="0.25" />
  <stop offset="100%" stop-color="#FFFFFF" stop-opacity="0.02" />
</linearGradient>

<!-- Card Background Gradients -->
<linearGradient id="coralBg" x1="0%" y1="0%" x2="100%" y2="100%">
  <stop offset="0%" stop-color="#2D1920" />
  <stop offset="100%" stop-color="#160C10" />
</linearGradient>

<linearGradient id="purpleBg" x1="0%" y1="0%" x2="100%" y2="100%">
  <stop offset="0%" stop-color="#25193B" />
  <stop offset="100%" stop-color="#110B1C" />
</linearGradient>

<linearGradient id="blueBg" x1="0%" y1="0%" x2="100%" y2="100%">
  <stop offset="0%" stop-color="#102235" />
  <stop offset="100%" stop-color="#08111A" />
</linearGradient>

<!-- Card Border Gradients -->
<linearGradient id="coralBorder" x1="0%" y1="0%" x2="100%" y2="100%">
  <stop offset="0%" stop-color="#FF7262" stop-opacity="0.8" />
  <stop offset="100%" stop-color="#FF7262" stop-opacity="0.1" />
</linearGradient>

<linearGradient id="purpleBorder" x1="0%" y1="0%" x2="100%" y2="100%">
  <stop offset="0%" stop-color="#A259FF" stop-opacity="0.8" />
  <stop offset="100%" stop-color="#A259FF" stop-opacity="0.1" />
</linearGradient>

<linearGradient id="blueBorder" x1="0%" y1="0%" x2="100%" y2="100%">
  <stop offset="0%" stop-color="#1ABCFE" stop-opacity="0.8" />
  <stop offset="100%" stop-color="#1ABCFE" stop-opacity="0.1" />
</linearGradient>

<!-- Clean Drop Shadow for Depth -->
<filter id="cardShadow" x="-20%" y="-20%" width="150%" height="150%" color-interpolation-filters="sRGB">
  <feDropShadow dx="0" dy="16" stdDeviation="16" flood-color="#000000" flood-opacity="0.5" />
</filter>
</defs>

<!-- Outer Glass Boundary -->
<rect x="32" y="32" width="448" height="448" rx="100" fill="#14120b" />

<!-- Inner Bounded Content -->
<g clip-path="url(#appIconClip)">
<clipPath id="appIconClip">
<rect x="32" y="32" width="448" height="448" rx="100" />
</clipPath>

<!-- ==========================================
     MAIN CONTENT: Staggered Task Card Stack
     Clean, flat geometry indicating orchestration
     ========================================== -->
<g>
  
  <!-- 1. Back Card (Coral / Step 1) -->
  <g filter="url(#cardShadow)">
    <rect x="91" y="126" width="220" height="150" rx="24" fill="url(#coralBg)" stroke="url(#coralBorder)" stroke-width="2" />
    
    <!-- Agent Node Top Right -->
    <circle cx="275" cy="162" r="8" fill="#FF7262" />
    
    <!-- UI Elements -->
    <rect x="115" y="158" width="48" height="8" rx="4" fill="#FF7262" />
    <rect x="115" y="182" width="120" height="6" rx="3" fill="#FFFFFF" fill-opacity="0.9" />
    <rect x="115" y="198" width="70" height="6" rx="3" fill="#FFFFFF" fill-opacity="0.4" />
    
    <!-- Progress Bar -->
    <rect x="115" y="244" width="172" height="6" rx="3" fill="#000000" fill-opacity="0.3" />
    <rect x="115" y="244" width="60" height="6" rx="3" fill="#FF7262" />
  </g>

  <!-- 2. Middle Card (Purple / Step 2) -->
  <g filter="url(#cardShadow)">
    <rect x="146" y="181" width="220" height="150" rx="24" fill="url(#purpleBg)" stroke="url(#purpleBorder)" stroke-width="2" />
    
    <!-- Agent Node Top Right -->
    <circle cx="330" cy="217" r="8" fill="#A259FF" />
    
    <!-- UI Elements -->
    <rect x="170" y="213" width="48" height="8" rx="4" fill="#A259FF" />
    <rect x="170" y="237" width="100" height="6" rx="3" fill="#FFFFFF" fill-opacity="0.9" />
    <rect x="170" y="253" width="140" height="6" rx="3" fill="#FFFFFF" fill-opacity="0.4" />
    
    <!-- Progress Bar -->
    <rect x="170" y="299" width="172" height="6" rx="3" fill="#000000" fill-opacity="0.3" />
    <rect x="170" y="299" width="130" height="6" rx="3" fill="#A259FF" />
  </g>

  <!-- 3. Front Card (Cyan / Step 3) -->
  <g filter="url(#cardShadow)">
    <rect x="201" y="236" width="220" height="150" rx="24" fill="url(#blueBg)" stroke="url(#blueBorder)" stroke-width="2" />
    
    <!-- Agent Node Top Right -->
    <circle cx="385" cy="272" r="8" fill="#1ABCFE" />
    
    <!-- UI Elements -->
    <rect x="225" y="268" width="48" height="8" rx="4" fill="#1ABCFE" />
    <rect x="225" y="292" width="130" height="6" rx="3" fill="#FFFFFF" fill-opacity="0.9" />
    <rect x="225" y="308" width="90" height="6" rx="3" fill="#FFFFFF" fill-opacity="0.4" />
    <rect x="225" y="324" width="60" height="6" rx="3" fill="#FFFFFF" fill-opacity="0.2" />
    
    <!-- Progress Bar -->
    <rect x="225" y="354" width="172" height="6" rx="3" fill="#000000" fill-opacity="0.3" />
    <rect x="225" y="354" width="100" height="6" rx="3" fill="#1ABCFE" />
  </g>

</g>
</g>

<!-- Outer Glass Bevel Stroke (Clean and absolute) -->
<rect x="33" y="33" width="446" height="446" rx="99" fill="none" stroke="url(#macOsBevel)" stroke-width="2.5" />

    </svg>
  </g>


</svg>
